<svg width="821" height="517" viewBox="0 0 821 517" fill="none" xmlns="http://www.w3.org/2000/svg">
<mask id="mask0" mask-type="alpha" maskUnits="userSpaceOnUse" x="1" y="0" width="820" height="517">
<path d="M1 6.00001C1 2.6863 3.68629 0 7 0H821V517H6.99999C3.68629 517 1 514.314 1 511V6.00001Z" fill="#C4C4C4"/>
</mask>
<g mask="url(#mask0)">
<path d="M231.417 12.9212L449.625 231.129C454.981 236.485 463.665 236.486 469.022 231.129L509.754 190.397C515.11 185.04 515.11 176.357 509.753 171.001L291.545 -47.2073C286.19 -52.5627 277.506 -52.5635 272.15 -47.2071L231.418 -6.47497C226.061 -1.11818 226.062 7.56579 231.417 12.9212ZM327.309 42.4222L360.059 75.173C361.979 77.093 362.181 80 360.514 81.6673C358.846 83.3351 355.939 83.1333 354.019 81.2133L321.268 48.4626C319.349 46.543 319.147 43.6362 320.815 41.9685C322.482 40.3009 325.389 40.5027 327.309 42.4222ZM312.162 17.5205C316.447 21.8054 316.614 28.5853 312.535 32.6646C308.457 36.7426 301.678 36.5746 297.393 32.2893C293.109 28.0048 292.94 21.2253 297.018 17.1473C301.097 13.0682 307.877 13.236 312.162 17.5205ZM289.958 -4.68356C294.242 -0.399079 294.41 6.38102 290.331 10.4603C286.253 14.5384 279.474 14.3701 275.189 10.0852C270.904 5.80079 270.735 -0.97892 274.814 -5.057C278.893 -9.13627 285.673 -8.96822 289.958 -4.68356Z" fill="#F6F7FD"/>
<path d="M158.682 85.6573L376.89 303.865C382.246 309.221 390.93 309.221 396.286 303.865L437.018 263.133C442.374 257.777 442.374 249.093 437.018 243.737L218.81 25.5286C213.455 20.1732 204.771 20.1728 199.414 25.529L158.682 66.2613C153.326 71.6173 153.327 80.3019 158.682 85.6573ZM254.573 115.158L287.324 147.909C289.244 149.829 289.446 152.735 287.778 154.404C286.11 156.071 283.203 155.87 281.284 153.95L248.533 121.199C246.613 119.279 246.412 116.372 248.079 114.705C249.747 113.037 252.654 113.239 254.573 115.158ZM239.426 90.2568C243.711 94.5416 243.879 101.321 239.8 105.4C235.723 109.478 228.943 109.31 224.658 105.025C220.374 100.741 220.205 93.9604 224.283 89.8825C228.362 85.8043 235.142 85.9723 239.426 90.2568ZM217.222 68.0527C221.507 72.3372 221.675 79.1171 217.596 83.1956C213.518 87.2735 206.739 87.1058 202.454 82.8209C198.17 78.5365 198.001 71.7562 202.079 67.6783C206.157 63.5998 212.938 63.7681 217.222 68.0527Z" fill="#F6F7FD"/>
<path d="M489.893 261.895L722.329 494.331C728.034 500.037 737.284 500.037 742.99 494.331L786.378 450.943C792.083 445.238 792.083 435.988 786.378 430.283L553.941 197.846C548.237 192.142 538.987 192.141 533.281 197.847L489.893 241.235C484.187 246.941 484.188 256.191 489.893 261.895ZM592.037 293.32L626.923 328.206C628.968 330.252 629.183 333.348 627.407 335.124C625.63 336.901 622.534 336.686 620.489 334.641L585.602 299.754C583.558 297.71 583.343 294.613 585.119 292.837C586.896 291.06 589.992 291.275 592.037 293.32ZM575.902 266.795C580.466 271.359 580.645 278.581 576.3 282.926C571.956 287.27 564.735 287.091 560.17 282.526C555.607 277.963 555.427 270.741 559.771 266.397C564.116 262.052 571.338 262.231 575.902 266.795ZM552.25 243.143C556.814 247.707 556.993 254.929 552.648 259.274C548.304 263.618 541.083 263.439 536.519 258.875C531.955 254.311 531.775 247.089 536.119 242.745C540.464 238.4 547.686 238.579 552.25 243.143Z" fill="#F6F7FD"/>
<path d="M412.414 339.374L644.85 571.81C650.556 577.515 659.806 577.515 665.511 571.81L708.899 528.422C714.605 522.716 714.605 513.466 708.899 507.761L476.463 275.325C470.759 269.62 461.508 269.62 455.803 275.325L412.414 318.713C406.709 324.419 406.71 333.669 412.414 339.374ZM514.558 370.798L549.445 405.685C551.49 407.73 551.705 410.826 549.928 412.603C548.152 414.379 545.055 414.164 543.01 412.119L508.124 377.233C506.079 375.188 505.864 372.092 507.641 370.316C509.417 368.539 512.514 368.754 514.558 370.798ZM498.423 344.273C502.988 348.838 503.167 356.059 498.822 360.404C494.478 364.748 487.257 364.569 482.692 360.005C478.128 355.441 477.949 348.219 482.293 343.875C486.638 339.531 493.86 339.71 498.423 344.273ZM474.772 320.622C479.335 325.185 479.514 332.407 475.17 336.752C470.826 341.096 463.605 340.917 459.04 336.353C454.477 331.789 454.297 324.566 458.641 320.223C462.985 315.878 470.208 316.058 474.772 320.622Z" fill="#F6F7FD"/>
<path d="M172.434 257.557L404.87 489.993C410.575 495.698 419.825 495.698 425.531 489.992L468.919 446.604C474.625 440.899 474.624 431.649 468.919 425.944L236.483 193.508C230.778 187.803 221.528 187.802 215.822 193.508L172.434 236.896C166.728 242.602 166.729 251.852 172.434 257.557ZM274.578 288.981L309.464 323.868C311.509 325.913 311.724 329.009 309.948 330.785C308.171 332.562 305.075 332.347 303.03 330.302L268.143 295.415C266.099 293.371 265.884 290.274 267.66 288.498C269.437 286.722 272.533 286.937 274.578 288.981ZM258.443 262.456C263.007 267.02 263.186 274.242 258.841 278.587C254.497 282.931 247.276 282.752 242.711 278.188C238.148 273.624 237.968 266.402 242.312 262.058C246.657 257.713 253.879 257.892 258.443 262.456ZM234.791 238.804C239.355 243.368 239.534 250.59 235.189 254.935C230.845 259.279 223.624 259.1 219.06 254.536C214.496 249.972 214.316 242.75 218.66 238.406C223.005 234.061 230.227 234.24 234.791 238.804Z" fill="#F6F7FD"/>
<path d="M94.9553 335.035L327.391 567.471C333.097 573.177 342.347 573.177 348.052 567.471L391.44 524.083C397.146 518.378 397.146 509.127 391.44 503.422L159.004 270.986C153.3 265.281 144.049 265.281 138.344 270.986L94.9555 314.374C89.2503 320.08 89.2507 329.331 94.9553 335.035ZM197.099 366.46L231.986 401.346C234.031 403.391 234.246 406.487 232.469 408.264C230.693 410.04 227.596 409.826 225.551 407.78L190.665 372.894C188.62 370.849 188.405 367.753 190.182 365.977C191.959 364.2 195.055 364.415 197.099 366.46ZM180.964 339.935C185.529 344.499 185.708 351.721 181.363 356.065C177.019 360.409 169.798 360.23 165.233 355.666C160.669 351.102 160.49 343.88 164.834 339.536C169.179 335.192 176.401 335.371 180.964 339.935ZM157.313 316.283C161.876 320.847 162.055 328.069 157.711 332.413C153.367 336.757 146.146 336.578 141.581 332.014C137.018 327.45 136.838 320.228 141.182 315.884C145.526 311.539 152.749 311.719 157.313 316.283Z" fill="#F6F7FD"/>
<path d="M-100.191 -13.6211L132.245 218.815C137.95 224.52 147.2 224.521 152.906 218.815L196.294 175.427C202 169.721 201.999 160.471 196.294 154.766L-36.1425 -77.6702C-41.8471 -83.3748 -51.0971 -83.3757 -56.8027 -77.67L-100.191 -34.282C-105.897 -28.5759 -105.896 -19.3257 -100.191 -13.6211ZM1.95269 17.8035L36.8389 52.6898C38.8841 54.7349 39.0987 57.8315 37.3227 59.6075C35.5461 61.3841 32.4499 61.1691 30.4048 59.124L-4.48151 24.2377C-6.52622 22.193 -6.74099 19.0966 -4.96459 17.3202C-3.18818 15.5438 -0.0920274 15.7588 1.95269 17.8035ZM-14.1818 -8.72191C-9.61752 -4.15765 -9.43894 3.06435 -13.7842 7.40961C-18.1282 11.7536 -25.3489 11.5746 -29.9136 7.00989C-34.4774 2.44604 -34.6573 -4.7755 -30.3133 -9.11949C-25.9678 -13.4645 -18.7456 -13.2858 -14.1818 -8.72191ZM-37.8336 -32.3738C-33.2698 -27.8099 -33.091 -20.5877 -37.4363 -16.2425C-41.7802 -11.8985 -49.0012 -12.0777 -53.5654 -16.642C-58.1293 -21.2058 -58.3093 -28.4276 -53.9654 -32.7716C-49.6201 -37.1168 -42.3977 -36.9378 -37.8336 -32.3738Z" fill="#F6F7FD"/>
<path d="M-177.67 63.8576L54.7662 296.294C60.4717 301.999 69.7217 301.999 75.4271 296.294L118.815 252.905C124.521 247.2 124.521 237.95 118.815 232.244L-113.621 -0.19166C-119.325 -5.89627 -128.576 -5.89668 -134.281 -0.191245L-177.669 43.197C-183.375 48.9022 -183.374 58.1531 -177.67 63.8576ZM-75.5256 95.2821L-40.6394 130.168C-38.5942 132.213 -38.3792 135.31 -40.1561 137.086C-41.9325 138.863 -45.0288 138.648 -47.074 136.603L-81.9602 101.717C-84.0049 99.672 -84.2195 96.5754 -82.4433 94.7992C-80.6665 93.0224 -77.5703 93.2374 -75.5256 95.2821ZM-91.6605 68.7571C-87.0962 73.3213 -86.9175 80.5431 -91.2619 84.8875C-95.6056 89.2313 -102.827 89.0529 -107.392 84.4882C-111.956 79.9244 -112.135 72.7022 -107.791 68.3584C-103.446 64.0142 -96.2244 64.1932 -91.6605 68.7571ZM-115.312 45.1052C-110.749 49.6691 -110.57 56.891 -114.914 61.2355C-119.258 65.5792 -126.479 65.4006 -131.044 60.8364C-135.607 56.2725 -135.787 49.0501 -131.443 44.7064C-127.099 40.362 -119.876 40.5412 -115.312 45.1052Z" fill="#F6F7FD"/>
</g>
</svg>
