<?xml version="1.0" encoding="utf-8"?>
<!-- Generator: Adobe Illustrator 15.0.0, SVG Export Plug-In . SVG Version: 6.00 Build 0)  -->
<!DOCTYPE svg PUBLIC "-//W3C//DTD SVG 1.1//EN" "http://www.w3.org/Graphics/SVG/1.1/DTD/svg11.dtd">
<svg version="1.1" id="Layer_1" xmlns="http://www.w3.org/2000/svg" xmlns:xlink="http://www.w3.org/1999/xlink" x="0px" y="0px"
	 width="1083.109px" height="1101.111px" viewBox="208.26 208.26 1083.109 1101.111"
	 enable-background="new 208.26 208.26 1083.109 1101.111" xml:space="preserve">
<path opacity="0.1" fill="#E8952C" enable-background="new    " d="M1192.693,864.809c-56.041-97.028-22.349-221.352,75.198-277.854
	l-104.909-181.745c-29.984,17.593-64.845,27.661-102.05,27.661c-112.12,0-202.981-91.492-202.981-204.353H648.105
	c0.278,34.83-8.412,70.167-27.061,102.422c-56.006,97.029-180.52,130.017-278.219,73.779l-104.892,181.73
	c30.2,17.188,56.347,42.302,74.933,74.522c55.913,96.863,22.419,220.974-74.774,277.566l104.933,181.705
	c29.864-17.396,64.561-27.333,101.56-27.333c111.771,0,202.427,90.899,202.98,203.246h209.831
	c-0.104-34.507,8.638-69.401,27.068-101.363c55.916-96.83,180.119-129.937,277.725-74.02l104.947-181.745
	c-30.004-17.172-56.008-42.223-74.442-74.293L1192.693,864.809L1192.693,864.809z M752.905,978.518
	c-119.384,0-216.164-96.771-216.164-216.146c0-119.384,96.78-216.171,216.164-216.171s216.151,96.788,216.151,216.171
	C969.057,881.747,872.289,978.518,752.905,978.518z"/>
</svg>
