<svg width="901" height="701" viewBox="0 0 901 701" fill="none" xmlns="http://www.w3.org/2000/svg">
<path d="M170.594 335.406C83.65 248.461 40.1778 204.989 20.0896 156.494C-6.69655 91.8287 -6.69655 19.1712 20.0896 -45.4938C40.1778 -93.9891 83.65 -137.461 170.594 -224.406C257.539 -311.35 301.011 -354.822 349.506 -374.91C414.171 -401.697 486.829 -401.697 551.494 -374.91C599.989 -354.822 643.461 -311.35 730.406 -224.406C817.35 -137.461 860.822 -93.9891 880.91 -45.4938C907.697 19.1712 907.697 91.8287 880.91 156.494C860.822 204.989 817.35 248.461 730.406 335.406C643.461 422.35 599.989 465.822 551.494 485.91C486.829 512.697 414.171 512.697 349.506 485.91C301.011 465.822 257.539 422.35 170.594 335.406Z" fill="#F5F8FF"/>
<path d="M219.025 507.088C185.789 448.81 169.171 419.671 165.525 391.155C160.662 353.132 170.977 314.636 194.2 284.137C211.616 261.265 240.577 244.339 298.499 210.487C356.422 176.635 385.383 159.709 413.658 155.877C451.361 150.769 489.451 160.975 519.548 184.25C542.119 201.706 558.737 230.845 591.973 289.123C625.21 347.401 641.828 376.54 645.474 405.056C650.336 443.08 640.021 481.575 616.799 512.074C599.383 534.946 570.422 551.872 512.499 585.725C454.577 619.577 425.615 636.503 397.34 640.334C359.638 645.442 321.548 635.236 291.451 611.961C268.88 594.506 252.262 565.367 219.025 507.088Z" fill="#2A60CA" fill-opacity="0.08"/>
</svg>
