<svg width="247" height="270" viewBox="0 0 247 270" fill="none" xmlns="http://www.w3.org/2000/svg">
<g opacity="0.9" filter="url(#filter0_d)">
<path d="M86.4844 185.712C96.5227 195.749 123.244 222.987 123.231 223.016C123.134 223.193 149.776 196.443 160.388 185.837L123.373 148.824L86.4844 185.712Z" fill="#3A1888"/>
<path d="M123.373 148.824L160.388 185.837C160.443 185.775 160.511 185.706 160.571 185.651L197.55 148.67L160.539 111.657L123.373 148.824Z" fill="#03A1C4"/>
<path d="M197.549 148.67L197.644 148.574C218.1 128.121 218.116 94.9708 197.706 74.4919L160.538 111.657L197.549 148.67Z" fill="#05D0DF"/>
<path d="M86.2053 111.657L49.3232 148.538C49.3337 148.551 49.34 148.563 49.3529 148.574L86.4232 185.651C86.4441 185.67 86.4653 185.689 86.4844 185.712L123.373 148.824L86.2053 111.657Z" fill="#761FE8"/>
<path d="M123.373 74.4894L160.539 111.657L197.706 74.4918C197.677 74.4707 197.666 74.4493 197.644 74.4284L160.571 37.3557C160.562 37.3451 160.549 37.3348 160.539 37.3241L123.373 74.4894Z" fill="#FFAA01"/>
<path d="M49.1667 74.6185C28.8931 95.0976 28.9439 128.125 49.3231 148.538L86.2052 111.658L49.1667 74.6185Z" fill="#F1175D"/>
<path d="M123.373 74.4895L86.3321 37.4489L49.3528 74.4282C49.2891 74.4916 49.2321 74.5595 49.1665 74.6184L86.2051 111.657L123.373 74.4895Z" fill="#FB3A1B"/>
<path d="M160.538 37.3242C140.058 16.8812 106.889 16.8921 86.4235 37.3558L86.3325 37.4489L123.373 74.4893L160.538 37.3242Z" fill="#FBC935"/>
</g>
<defs>
<filter id="filter0_d" x="0" y="0" width="247" height="269.016" filterUnits="userSpaceOnUse" color-interpolation-filters="sRGB">
<feFlood flood-opacity="0" result="BackgroundImageFix"/>
<feColorMatrix in="SourceAlpha" type="matrix" values="0 0 0 0 0 0 0 0 0 0 0 0 0 0 0 0 0 0 127 0"/>
<feOffset dy="12"/>
<feGaussianBlur stdDeviation="17"/>
<feColorMatrix type="matrix" values="0 0 0 0 0 0 0 0 0 0 0 0 0 0 0 0 0 0 0.2 0"/>
<feBlend mode="normal" in2="BackgroundImageFix" result="effect1_dropShadow"/>
<feBlend mode="normal" in="SourceGraphic" in2="effect1_dropShadow" result="shape"/>
</filter>
</defs>
</svg>
