<svg width="400" height="401" viewBox="0 0 400 401" fill="none" xmlns="http://www.w3.org/2000/svg">
<path d="M75.7356 325.213C37.1365 286.614 17.837 267.315 8.91882 245.785C-2.97294 217.077 -2.97294 184.821 8.91882 156.113C17.837 134.583 37.1365 115.284 75.7356 76.6845C114.335 38.0855 133.634 18.786 155.164 9.8678C183.872 -2.02397 216.128 -2.02397 244.836 9.8678C266.366 18.786 285.665 38.0855 324.264 76.6845C362.863 115.284 382.163 134.583 391.081 156.113C402.973 184.821 402.973 217.077 391.081 245.785C382.163 267.315 362.863 286.614 324.264 325.213C285.665 363.812 266.366 383.112 244.836 392.03C216.128 403.922 183.872 403.922 155.164 392.03C133.634 383.112 114.335 363.812 75.7356 325.213Z" fill="#3170FE" fill-opacity="0.05"/>
</svg>
