<svg width="1173" height="341" viewBox="0 0 1173 341" fill="none" xmlns="http://www.w3.org/2000/svg">
<mask id="mask0" mask-type="alpha" maskUnits="userSpaceOnUse" x="0" y="0" width="1173" height="341">
<rect x="0.5" y="0.694336" width="1172.5" height="340" rx="6" fill="#F5F8FF"/>
</mask>
<g mask="url(#mask0)">
<path d="M238.321 -22.5555L365.349 104.472C368.467 107.59 373.521 107.59 376.64 104.472L400.352 80.7601C403.47 77.642 403.47 72.587 400.352 69.469L273.324 -57.5587C270.206 -60.6763 265.151 -60.6767 262.033 -57.5586L238.321 -33.8468C235.203 -30.7284 235.203 -25.6731 238.321 -22.5555ZM294.143 -5.38175L313.209 13.6838C314.326 14.8015 314.444 16.4938 313.473 17.4644C312.502 18.4353 310.81 18.3178 309.692 17.2001L290.627 -1.86543C289.509 -2.98288 289.392 -4.67505 290.363 -5.64587C291.334 -6.61668 293.026 -6.4992 294.143 -5.38175ZM285.326 -19.8781C287.82 -17.3836 287.918 -13.4368 285.543 -11.0621C283.169 -8.68807 279.223 -8.78591 276.728 -11.2805C274.234 -13.7747 274.136 -17.7213 276.51 -20.0953C278.884 -22.4699 282.831 -22.3722 285.326 -19.8781ZM272.4 -32.8039C274.894 -30.3097 274.992 -26.3628 272.617 -23.9881C270.243 -21.6141 266.297 -21.712 263.802 -24.2064C261.308 -26.7006 261.21 -30.6473 263.584 -33.0213C265.958 -35.396 269.905 -35.2982 272.4 -32.8039Z" fill="#EFF3FB"/>
<path d="M195.979 19.7873L323.007 146.815C326.125 149.933 331.18 149.933 334.298 146.815L358.01 123.103C361.128 119.985 361.128 114.93 358.01 111.812L230.982 -15.216C227.865 -18.3336 222.809 -18.3338 219.691 -15.2158L195.979 8.49614C192.861 11.6141 192.862 16.6697 195.979 19.7873ZM251.801 36.9609L270.867 56.0264C271.985 57.1441 272.102 58.8362 271.131 59.8072C270.16 60.7781 268.468 60.6607 267.35 59.543L248.285 40.4775C247.167 39.36 247.05 37.6677 248.021 36.697C248.992 35.726 250.684 35.8435 251.801 36.9609ZM242.984 22.4648C245.478 24.9592 245.576 28.906 243.202 31.2802C240.828 33.6541 236.881 33.5566 234.387 31.062C231.892 28.5679 231.794 24.6209 234.168 22.247C236.543 19.8729 240.49 19.9707 242.984 22.4648ZM230.058 9.53898C232.552 12.0331 232.65 15.98 230.276 18.3542C227.902 20.7281 223.955 20.6305 221.461 18.1361C218.966 15.642 218.868 11.6949 221.242 9.321C223.617 6.94676 227.564 7.04471 230.058 9.53898Z" fill="#EFF3FB"/>
<path d="M388.789 122.383L524.1 257.693C527.421 261.014 532.805 261.014 536.127 257.693L561.385 232.435C564.707 229.113 564.706 223.729 561.385 220.407L426.075 85.097C422.754 81.7761 417.369 81.7756 414.047 85.0971L388.79 110.355C385.468 113.677 385.468 119.062 388.789 122.383ZM448.251 140.676L468.56 160.985C469.751 162.175 469.875 163.978 468.842 165.012C467.807 166.046 466.005 165.921 464.814 164.73L444.506 144.422C443.315 143.231 443.19 141.429 444.224 140.395C445.259 139.361 447.061 139.486 448.251 140.676ZM438.859 125.235C441.516 127.892 441.62 132.096 439.09 134.625C436.561 137.154 432.358 137.05 429.701 134.393C427.044 131.736 426.939 127.532 429.468 125.003C431.998 122.474 436.202 122.578 438.859 125.235ZM425.09 111.466C427.747 114.123 427.851 118.327 425.321 120.857C422.793 123.385 418.589 123.281 415.932 120.624C413.275 117.967 413.17 113.763 415.699 111.234C418.229 108.705 422.433 108.809 425.09 111.466Z" fill="#EFF3FB"/>
<path d="M343.686 167.486L478.996 302.796C482.317 306.118 487.702 306.118 491.024 302.796L516.282 277.538C519.603 274.217 519.603 268.832 516.282 265.511L380.971 130.2C377.65 126.88 372.265 126.879 368.944 130.201L343.686 155.459C340.365 158.78 340.365 164.165 343.686 167.486ZM403.148 185.779L423.457 206.088C424.647 207.279 424.772 209.081 423.738 210.115C422.704 211.15 420.901 211.025 419.711 209.834L399.402 189.525C398.212 188.335 398.087 186.532 399.121 185.498C400.155 184.464 401.958 184.589 403.148 185.779ZM393.755 170.338C396.412 172.995 396.516 177.199 393.987 179.728C391.459 182.257 387.255 182.153 384.597 179.496C381.941 176.839 381.836 172.635 384.365 170.106C386.894 167.577 391.098 167.681 393.755 170.338ZM379.986 156.57C382.643 159.226 382.747 163.431 380.218 165.96C377.69 168.488 373.486 168.384 370.829 165.727C368.172 163.07 368.067 158.866 370.596 156.337C373.125 153.808 377.33 153.913 379.986 156.57Z" fill="#EFF3FB"/>
<path d="M544.549 278.142L679.859 413.452C683.181 416.773 688.565 416.774 691.887 413.452L717.145 388.194C720.466 384.873 720.466 379.488 717.145 376.167L581.834 240.856C578.513 237.535 573.129 237.535 569.807 240.856L544.549 266.114C541.228 269.436 541.228 274.821 544.549 278.142ZM604.011 296.435L624.32 316.744C625.51 317.935 625.635 319.737 624.601 320.771C623.567 321.805 621.765 321.68 620.574 320.49L600.265 300.181C599.075 298.991 598.95 297.188 599.984 296.154C601.018 295.12 602.821 295.245 604.011 296.435ZM594.619 280.994C597.276 283.651 597.38 287.855 594.85 290.385C592.321 292.913 588.118 292.809 585.46 290.152C582.804 287.495 582.699 283.291 585.228 280.762C587.757 278.233 591.962 278.337 594.619 280.994ZM580.85 267.225C583.507 269.882 583.611 274.086 581.081 276.616C578.552 279.145 574.349 279.04 571.692 276.383C569.035 273.726 568.93 269.522 571.459 266.994C573.988 264.464 578.193 264.568 580.85 267.225Z" fill="#EFF3FB"/>
<path d="M499.446 323.245L634.756 458.556C638.077 461.877 643.462 461.877 646.783 458.556L672.041 433.298C675.363 429.976 675.363 424.591 672.041 421.27L536.731 285.96C533.41 282.639 528.025 282.639 524.704 285.96L499.446 311.218C496.124 314.539 496.125 319.924 499.446 323.245ZM558.908 341.539L579.216 361.847C580.407 363.038 580.532 364.84 579.498 365.875C578.464 366.909 576.661 366.784 575.471 365.593L555.162 345.285C553.972 344.094 553.847 342.292 554.881 341.258C555.915 340.223 557.717 340.348 558.908 341.539ZM549.515 326.097C552.172 328.755 552.276 332.959 549.747 335.488C547.218 338.016 543.014 337.912 540.357 335.255C537.7 332.598 537.596 328.394 540.125 325.865C542.654 323.336 546.858 323.441 549.515 326.097ZM535.746 312.329C538.403 314.986 538.507 319.19 535.978 321.719C533.449 324.248 529.246 324.144 526.588 321.487C523.932 318.83 523.827 314.625 526.356 312.097C528.885 309.568 533.089 309.672 535.746 312.329Z" fill="#EFF3FB"/>
<path d="M203.985 119.857L339.295 255.167C342.616 258.488 348.001 258.489 351.322 255.167L376.58 229.909C379.902 226.587 379.902 221.203 376.58 217.881L241.27 82.5711C237.949 79.2502 232.564 79.2497 229.243 82.5712L203.985 107.829C200.663 111.151 200.664 116.536 203.985 119.857ZM263.447 138.15L283.755 158.459C284.946 159.649 285.071 161.452 284.037 162.486C283.003 163.52 281.2 163.395 280.01 162.204L259.701 141.896C258.511 140.705 258.386 138.903 259.42 137.869C260.454 136.835 262.256 136.96 263.447 138.15ZM254.054 122.709C256.711 125.366 256.815 129.57 254.286 132.099C251.757 134.628 247.553 134.524 244.896 131.867C242.239 129.21 242.134 125.006 244.663 122.477C247.193 119.948 251.397 120.052 254.054 122.709ZM240.285 108.94C242.942 111.597 243.046 115.801 240.517 118.331C237.988 120.859 233.784 120.755 231.127 118.098C228.471 115.441 228.366 111.237 230.894 108.708C233.424 106.179 237.628 106.283 240.285 108.94Z" fill="#EFF3FB"/>
<path d="M158.881 164.96L294.191 300.27C297.513 303.592 302.897 303.592 306.219 300.27L331.477 275.012C334.798 271.691 334.798 266.306 331.477 262.985L196.166 127.674C192.846 124.354 187.461 124.353 184.139 127.675L158.881 152.933C155.56 156.254 155.56 161.639 158.881 164.96ZM218.343 183.254L238.652 203.562C239.842 204.753 239.968 206.555 238.933 207.59C237.899 208.624 236.097 208.499 234.906 207.308L214.597 186.999C213.407 185.809 213.282 184.006 214.316 182.972C215.351 181.938 217.153 182.063 218.343 183.254ZM208.95 167.812C211.607 170.469 211.712 174.673 209.183 177.202C206.654 179.731 202.45 179.627 199.793 176.97C197.136 174.313 197.032 170.109 199.56 167.58C202.089 165.051 206.294 165.156 208.95 167.812ZM195.182 154.044C197.839 156.7 197.943 160.905 195.414 163.434C192.885 165.962 188.681 165.858 186.024 163.201C183.367 160.545 183.263 156.34 185.791 153.811C188.321 151.282 192.525 151.387 195.182 154.044Z" fill="#EFF3FB"/>
<path d="M545.391 97.1247L680.701 232.435C684.022 235.756 689.407 235.757 692.729 232.435L717.987 207.177C721.308 203.855 721.308 198.471 717.987 195.15L582.676 59.8392C579.355 56.5183 573.97 56.5178 570.649 59.8393L545.391 85.0972C542.069 88.4189 542.07 93.8038 545.391 97.1247ZM604.853 115.418L625.162 135.727C626.352 136.917 626.477 138.72 625.443 139.754C624.409 140.788 622.607 140.663 621.416 139.473L601.107 119.164C599.917 117.974 599.792 116.171 600.826 115.137C601.86 114.103 603.663 114.228 604.853 115.418ZM595.46 99.9767C598.117 102.634 598.221 106.838 595.692 109.368C593.163 111.896 588.96 111.792 586.302 109.135C583.645 106.478 583.541 102.274 586.07 99.7453C588.599 97.2159 592.804 97.3199 595.46 99.9767ZM581.692 86.2081C584.348 88.8648 584.453 93.0692 581.923 95.5987C579.394 98.1275 575.191 98.0232 572.534 95.3662C569.877 92.7094 569.772 88.5053 572.301 85.9765C574.83 83.4469 579.035 83.5511 581.692 86.2081Z" fill="#EFF3FB"/>
<path d="M500.287 142.228L635.598 277.538C638.919 280.86 644.304 280.86 647.625 277.538L672.883 252.28C676.204 248.959 676.204 243.574 672.883 240.253L537.573 104.943C534.252 101.622 528.867 101.621 525.545 104.943L500.287 130.201C496.966 133.522 496.966 138.907 500.287 142.228ZM559.749 160.522L580.058 180.83C581.249 182.021 581.374 183.823 580.339 184.858C579.305 185.892 577.503 185.767 576.312 184.576L556.004 164.267C554.813 163.077 554.688 161.275 555.722 160.241C556.757 159.206 558.559 159.331 559.749 160.522ZM550.357 145.08C553.014 147.737 553.118 151.942 550.589 154.471C548.06 156.999 543.856 156.895 541.199 154.238C538.542 151.581 538.438 147.377 540.967 144.848C543.496 142.319 547.7 142.424 550.357 145.08ZM536.588 131.312C539.245 133.968 539.349 138.173 536.82 140.702C534.291 143.23 530.087 143.126 527.43 140.469C524.773 137.813 524.669 133.608 527.198 131.08C529.727 128.55 533.931 128.655 536.588 131.312Z" fill="#EFF3FB"/>
<path d="M45.2775 -38.0066L180.588 97.3036C183.909 100.625 189.294 100.625 192.615 97.3035L217.873 72.0456C221.195 68.7241 221.195 63.3396 217.873 60.0182L82.5628 -75.2922C79.242 -78.6131 73.8572 -78.6135 70.5357 -75.2921L45.2778 -50.0342C41.9561 -46.7124 41.9567 -41.3275 45.2775 -38.0066ZM104.74 -19.7131L125.048 0.595594C126.239 1.78615 126.364 3.5888 125.33 4.62267C124.296 5.6569 122.493 5.53175 121.303 4.34119L100.994 -15.9675C99.8037 -17.1578 99.6786 -18.9603 100.713 -19.9944C101.747 -21.0286 103.549 -20.9034 104.74 -19.7131ZM95.3471 -35.1546C98.0041 -32.4976 98.1081 -28.2934 95.5785 -25.7638C93.0497 -23.235 88.8462 -23.3392 86.1889 -25.9965C83.5322 -28.6533 83.4275 -32.8572 85.9563 -35.3861C88.4859 -37.9155 92.6903 -37.8114 95.3471 -35.1546ZM81.5784 -48.9233C84.2352 -46.2665 84.3392 -42.0622 81.8097 -39.5326C79.2809 -37.0038 75.0773 -37.1082 72.4203 -39.7652C69.7635 -42.422 69.6586 -46.6261 72.1875 -49.1549C74.717 -51.6844 78.9215 -51.5802 81.5784 -48.9233Z" fill="#EFF3FB"/>
<path d="M0.174026 7.09688L135.484 142.407C138.806 145.729 144.19 145.729 147.512 142.407L172.77 117.149C176.091 113.828 176.091 108.443 172.77 105.122L37.4594 -30.1888C34.1386 -33.5097 28.7535 -33.5099 25.4322 -30.1885L0.174147 -4.93051C-3.14709 -1.60927 -3.14684 3.77601 0.174026 7.09688ZM59.6362 25.3903L79.9449 45.699C81.1354 46.8895 81.2606 48.6919 80.2262 49.7263C79.1921 50.7604 77.3896 50.6354 76.199 49.4448L55.8903 29.1361C54.7 27.9458 54.5751 26.1432 55.6091 25.1092C56.6435 24.0748 58.4459 24.2 59.6362 25.3903ZM50.2434 9.94902C52.9005 12.6061 53.0045 16.8102 50.4755 19.3392C47.9468 21.8679 43.743 21.7641 41.0857 19.1068C38.4289 16.45 38.3246 12.2457 40.8532 9.71697C43.3824 7.18804 47.5866 7.29223 50.2434 9.94902ZM36.4747 -3.81966C39.1315 -1.16287 39.2357 3.04134 36.7067 5.5704C34.178 8.09908 29.974 7.99512 27.317 5.33809C24.6602 2.68129 24.5557 -1.52316 27.0844 -4.05185C29.6135 -6.5809 33.8178 -6.47658 36.4747 -3.81966Z" fill="#EFF3FB"/>
</g>
</svg>
